<svg xmlns:xlink="http://www.w3.org/1999/xlink" width="38.269ex" height="14.843ex" style="vertical-align: -6.838ex;" viewBox="0 -3446.4 16476.9 6390.6" role="img" focusable="false" xmlns="http://www.w3.org/2000/svg" aria-labelledby="MathJax-SVG-1-Title">
<title id="MathJax-SVG-1-Title">{\displaystyle {\begin{aligned}{\bar {y}}&amp;={\frac {1}{T}}\left(\int _{0}^{DT}y_{\text{max}}\,dt+\int _{DT}^{T}y_{\text{min}}\,dt\right)\\&amp;={\frac {1}{T}}\left(D\cdot T\cdot y_{\text{max}}+T\left(1-D\right)y_{\text{min}}\right)\\&amp;=D\cdot y_{\text{max}}+\left(1-D\right)y_{\text{min}}\end{aligned}}}</title>
<defs aria-hidden="true">
<path stroke-width="1" id="E1-MJMATHI-79" d="M21 287Q21 301 36 335T84 406T158 442Q199 442 224 419T250 355Q248 336 247 334Q247 331 231 288T198 191T182 105Q182 62 196 45T238 27Q261 27 281 38T312 61T339 94Q339 95 344 114T358 173T377 247Q415 397 419 404Q432 431 462 431Q475 431 483 424T494 412T496 403Q496 390 447 193T391 -23Q363 -106 294 -155T156 -205Q111 -205 77 -183T43 -117Q43 -95 50 -80T69 -58T89 -48T106 -45Q150 -45 150 -87Q150 -107 138 -122T115 -142T102 -147L99 -148Q101 -153 118 -160T152 -167H160Q177 -167 186 -165Q219 -156 247 -127T290 -65T313 -9T321 21L315 17Q309 13 296 6T270 -6Q250 -11 231 -11Q185 -11 150 11T104 82Q103 89 103 113Q103 170 138 262T173 379Q173 380 173 381Q173 390 173 393T169 400T158 404H154Q131 404 112 385T82 344T65 302T57 280Q55 278 41 278H27Q21 284 21 287Z"></path>
<path stroke-width="1" id="E1-MJMAIN-AF" d="M69 544V590H430V544H69Z"></path>
<path stroke-width="1" id="E1-MJMAIN-3D" d="M56 347Q56 360 70 367H707Q722 359 722 347Q722 336 708 328L390 327H72Q56 332 56 347ZM56 153Q56 168 72 173H708Q722 163 722 153Q722 140 707 133H70Q56 140 56 153Z"></path>
<path stroke-width="1" id="E1-MJMAIN-31" d="M213 578L200 573Q186 568 160 563T102 556H83V602H102Q149 604 189 617T245 641T273 663Q275 666 285 666Q294 666 302 660V361L303 61Q310 54 315 52T339 48T401 46H427V0H416Q395 3 257 3Q121 3 100 0H88V46H114Q136 46 152 46T177 47T193 50T201 52T207 57T213 61V578Z"></path>
<path stroke-width="1" id="E1-MJMATHI-54" d="M40 437Q21 437 21 445Q21 450 37 501T71 602L88 651Q93 669 101 677H569H659Q691 677 697 676T704 667Q704 661 687 553T668 444Q668 437 649 437Q640 437 637 437T631 442L629 445Q629 451 635 490T641 551Q641 586 628 604T573 629Q568 630 515 631Q469 631 457 630T439 622Q438 621 368 343T298 60Q298 48 386 46Q418 46 427 45T436 36Q436 31 433 22Q429 4 424 1L422 0Q419 0 415 0Q410 0 363 1T228 2Q99 2 64 0H49Q43 6 43 9T45 27Q49 40 55 46H83H94Q174 46 189 55Q190 56 191 56Q196 59 201 76T241 233Q258 301 269 344Q339 619 339 625Q339 630 310 630H279Q212 630 191 624Q146 614 121 583T67 467Q60 445 57 441T43 437H40Z"></path>
<path stroke-width="1" id="E1-MJMAIN-28" d="M94 250Q94 319 104 381T127 488T164 576T202 643T244 695T277 729T302 750H315H319Q333 750 333 741Q333 738 316 720T275 667T226 581T184 443T167 250T184 58T225 -81T274 -167T316 -220T333 -241Q333 -250 318 -250H315H302L274 -226Q180 -141 137 -14T94 250Z"></path>
<path stroke-width="1" id="E1-MJSZ2-222B" d="M114 -798Q132 -824 165 -824H167Q195 -824 223 -764T275 -600T320 -391T362 -164Q365 -143 367 -133Q439 292 523 655T645 1127Q651 1145 655 1157T672 1201T699 1257T733 1306T777 1346T828 1360Q884 1360 912 1325T944 1245Q944 1220 932 1205T909 1186T887 1183Q866 1183 849 1198T832 1239Q832 1287 885 1296L882 1300Q879 1303 874 1307T866 1313Q851 1323 833 1323Q819 1323 807 1311T775 1255T736 1139T689 936T633 628Q574 293 510 -5T410 -437T355 -629Q278 -862 165 -862Q125 -862 92 -831T55 -746Q55 -711 74 -698T112 -685Q133 -685 150 -700T167 -741Q167 -789 114 -798Z"></path>
<path stroke-width="1" id="E1-MJMATHI-44" d="M287 628Q287 635 230 637Q207 637 200 638T193 647Q193 655 197 667T204 682Q206 683 403 683Q570 682 590 682T630 676Q702 659 752 597T803 431Q803 275 696 151T444 3L430 1L236 0H125H72Q48 0 41 2T33 11Q33 13 36 25Q40 41 44 43T67 46Q94 46 127 49Q141 52 146 61Q149 65 218 339T287 628ZM703 469Q703 507 692 537T666 584T629 613T590 629T555 636Q553 636 541 636T512 636T479 637H436Q392 637 386 627Q384 623 313 339T242 52Q242 48 253 48T330 47Q335 47 349 47T373 46Q499 46 581 128Q617 164 640 212T683 339T703 469Z"></path>
<path stroke-width="1" id="E1-MJMAIN-30" d="M96 585Q152 666 249 666Q297 666 345 640T423 548Q460 465 460 320Q460 165 417 83Q397 41 362 16T301 -15T250 -22Q224 -22 198 -16T137 16T82 83Q39 165 39 320Q39 494 96 585ZM321 597Q291 629 250 629Q208 629 178 597Q153 571 145 525T137 333Q137 175 145 125T181 46Q209 16 250 16Q290 16 318 46Q347 76 354 130T362 333Q362 478 354 524T321 597Z"></path>
<path stroke-width="1" id="E1-MJMAIN-6D" d="M41 46H55Q94 46 102 60V68Q102 77 102 91T102 122T103 161T103 203Q103 234 103 269T102 328V351Q99 370 88 376T43 385H25V408Q25 431 27 431L37 432Q47 433 65 434T102 436Q119 437 138 438T167 441T178 442H181V402Q181 364 182 364T187 369T199 384T218 402T247 421T285 437Q305 442 336 442Q351 442 364 440T387 434T406 426T421 417T432 406T441 395T448 384T452 374T455 366L457 361L460 365Q463 369 466 373T475 384T488 397T503 410T523 422T546 432T572 439T603 442Q729 442 740 329Q741 322 741 190V104Q741 66 743 59T754 49Q775 46 803 46H819V0H811L788 1Q764 2 737 2T699 3Q596 3 587 0H579V46H595Q656 46 656 62Q657 64 657 200Q656 335 655 343Q649 371 635 385T611 402T585 404Q540 404 506 370Q479 343 472 315T464 232V168V108Q464 78 465 68T468 55T477 49Q498 46 526 46H542V0H534L510 1Q487 2 460 2T422 3Q319 3 310 0H302V46H318Q379 46 379 62Q380 64 380 200Q379 335 378 343Q372 371 358 385T334 402T308 404Q263 404 229 370Q202 343 195 315T187 232V168V108Q187 78 188 68T191 55T200 49Q221 46 249 46H265V0H257L234 1Q210 2 183 2T145 3Q42 3 33 0H25V46H41Z"></path>
<path stroke-width="1" id="E1-MJMAIN-61" d="M137 305T115 305T78 320T63 359Q63 394 97 421T218 448Q291 448 336 416T396 340Q401 326 401 309T402 194V124Q402 76 407 58T428 40Q443 40 448 56T453 109V145H493V106Q492 66 490 59Q481 29 455 12T400 -6T353 12T329 54V58L327 55Q325 52 322 49T314 40T302 29T287 17T269 6T247 -2T221 -8T190 -11Q130 -11 82 20T34 107Q34 128 41 147T68 188T116 225T194 253T304 268H318V290Q318 324 312 340Q290 411 215 411Q197 411 181 410T156 406T148 403Q170 388 170 359Q170 334 154 320ZM126 106Q126 75 150 51T209 26Q247 26 276 49T315 109Q317 116 318 175Q318 233 317 233Q309 233 296 232T251 223T193 203T147 166T126 106Z"></path>
<path stroke-width="1" id="E1-MJMAIN-78" d="M201 0Q189 3 102 3Q26 3 17 0H11V46H25Q48 47 67 52T96 61T121 78T139 96T160 122T180 150L226 210L168 288Q159 301 149 315T133 336T122 351T113 363T107 370T100 376T94 379T88 381T80 383Q74 383 44 385H16V431H23Q59 429 126 429Q219 429 229 431H237V385Q201 381 201 369Q201 367 211 353T239 315T268 274L272 270L297 304Q329 345 329 358Q329 364 327 369T322 376T317 380T310 384L307 385H302V431H309Q324 428 408 428Q487 428 493 431H499V385H492Q443 385 411 368Q394 360 377 341T312 257L296 236L358 151Q424 61 429 57T446 50Q464 46 499 46H516V0H510H502Q494 1 482 1T457 2T432 2T414 3Q403 3 377 3T327 1L304 0H295V46H298Q309 46 320 51T331 63Q331 65 291 120L250 175Q249 174 219 133T185 88Q181 83 181 74Q181 63 188 55T206 46Q208 46 208 23V0H201Z"></path>
<path stroke-width="1" id="E1-MJMATHI-64" d="M366 683Q367 683 438 688T511 694Q523 694 523 686Q523 679 450 384T375 83T374 68Q374 26 402 26Q411 27 422 35Q443 55 463 131Q469 151 473 152Q475 153 483 153H487H491Q506 153 506 145Q506 140 503 129Q490 79 473 48T445 8T417 -8Q409 -10 393 -10Q359 -10 336 5T306 36L300 51Q299 52 296 50Q294 48 292 46Q233 -10 172 -10Q117 -10 75 30T33 157Q33 205 53 255T101 341Q148 398 195 420T280 442Q336 442 364 400Q369 394 369 396Q370 400 396 505T424 616Q424 629 417 632T378 637H357Q351 643 351 645T353 664Q358 683 366 683ZM352 326Q329 405 277 405Q242 405 210 374T160 293Q131 214 119 129Q119 126 119 118T118 106Q118 61 136 44T179 26Q233 26 290 98L298 109L352 326Z"></path>
<path stroke-width="1" id="E1-MJMATHI-74" d="M26 385Q19 392 19 395Q19 399 22 411T27 425Q29 430 36 430T87 431H140L159 511Q162 522 166 540T173 566T179 586T187 603T197 615T211 624T229 626Q247 625 254 615T261 596Q261 589 252 549T232 470L222 433Q222 431 272 431H323Q330 424 330 420Q330 398 317 385H210L174 240Q135 80 135 68Q135 26 162 26Q197 26 230 60T283 144Q285 150 288 151T303 153H307Q322 153 322 145Q322 142 319 133Q314 117 301 95T267 48T216 6T155 -11Q125 -11 98 4T59 56Q57 64 57 83V101L92 241Q127 382 128 383Q128 385 77 385H26Z"></path>
<path stroke-width="1" id="E1-MJMAIN-2B" d="M56 237T56 250T70 270H369V420L370 570Q380 583 389 583Q402 583 409 568V270H707Q722 262 722 250T707 230H409V-68Q401 -82 391 -82H389H387Q375 -82 369 -68V230H70Q56 237 56 250Z"></path>
<path stroke-width="1" id="E1-MJMAIN-69" d="M69 609Q69 637 87 653T131 669Q154 667 171 652T188 609Q188 579 171 564T129 549Q104 549 87 564T69 609ZM247 0Q232 3 143 3Q132 3 106 3T56 1L34 0H26V46H42Q70 46 91 49Q100 53 102 60T104 102V205V293Q104 345 102 359T88 378Q74 385 41 385H30V408Q30 431 32 431L42 432Q52 433 70 434T106 436Q123 437 142 438T171 441T182 442H185V62Q190 52 197 50T232 46H255V0H247Z"></path>
<path stroke-width="1" id="E1-MJMAIN-6E" d="M41 46H55Q94 46 102 60V68Q102 77 102 91T102 122T103 161T103 203Q103 234 103 269T102 328V351Q99 370 88 376T43 385H25V408Q25 431 27 431L37 432Q47 433 65 434T102 436Q119 437 138 438T167 441T178 442H181V402Q181 364 182 364T187 369T199 384T218 402T247 421T285 437Q305 442 336 442Q450 438 463 329Q464 322 464 190V104Q464 66 466 59T477 49Q498 46 526 46H542V0H534L510 1Q487 2 460 2T422 3Q319 3 310 0H302V46H318Q379 46 379 62Q380 64 380 200Q379 335 378 343Q372 371 358 385T334 402T308 404Q263 404 229 370Q202 343 195 315T187 232V168V108Q187 78 188 68T191 55T200 49Q221 46 249 46H265V0H257L234 1Q210 2 183 2T145 3Q42 3 33 0H25V46H41Z"></path>
<path stroke-width="1" id="E1-MJMAIN-29" d="M60 749L64 750Q69 750 74 750H86L114 726Q208 641 251 514T294 250Q294 182 284 119T261 12T224 -76T186 -143T145 -194T113 -227T90 -246Q87 -249 86 -250H74Q66 -250 63 -250T58 -247T55 -238Q56 -237 66 -225Q221 -64 221 250T66 725Q56 737 55 738Q55 746 60 749Z"></path>
<path stroke-width="1" id="E1-MJSZ3-28" d="M701 -940Q701 -943 695 -949H664Q662 -947 636 -922T591 -879T537 -818T475 -737T412 -636T350 -511T295 -362T250 -186T221 17T209 251Q209 962 573 1361Q596 1386 616 1405T649 1437T664 1450H695Q701 1444 701 1441Q701 1436 681 1415T629 1356T557 1261T476 1118T400 927T340 675T308 359Q306 321 306 250Q306 -139 400 -430T690 -924Q701 -936 701 -940Z"></path>
<path stroke-width="1" id="E1-MJSZ3-29" d="M34 1438Q34 1446 37 1448T50 1450H56H71Q73 1448 99 1423T144 1380T198 1319T260 1238T323 1137T385 1013T440 864T485 688T514 485T526 251Q526 134 519 53Q472 -519 162 -860Q139 -885 119 -904T86 -936T71 -949H56Q43 -949 39 -947T34 -937Q88 -883 140 -813Q428 -430 428 251Q428 453 402 628T338 922T245 1146T145 1309T46 1425Q44 1427 42 1429T39 1433T36 1436L34 1438Z"></path>
<path stroke-width="1" id="E1-MJMAIN-22C5" d="M78 250Q78 274 95 292T138 310Q162 310 180 294T199 251Q199 226 182 208T139 190T96 207T78 250Z"></path>
<path stroke-width="1" id="E1-MJMAIN-2212" d="M84 237T84 250T98 270H679Q694 262 694 250T679 230H98Q84 237 84 250Z"></path>
</defs>
<g stroke="currentColor" fill="currentColor" stroke-width="0" transform="matrix(1 0 0 -1 0 0)" aria-hidden="true">
<g transform="translate(167,0)">
<g transform="translate(-11,0)">
<g transform="translate(0,1785)">
 <use xlink:href="#E1-MJMATHI-79" x="1" y="0"></use>
 <use xlink:href="#E1-MJMAIN-AF" x="60" y="8"></use>
</g>
</g>
<g transform="translate(550,0)">
<g transform="translate(0,1785)">
 <use xlink:href="#E1-MJMAIN-3D" x="277" y="0"></use>
<g transform="translate(1334,0)">
<g transform="translate(120,0)">
<rect stroke="none" width="824" height="60" x="0" y="220"></rect>
 <use xlink:href="#E1-MJMAIN-31" x="162" y="676"></use>
 <use xlink:href="#E1-MJMATHI-54" x="60" y="-698"></use>
</g>
</g>
<g transform="translate(2565,0)">
 <use xlink:href="#E1-MJSZ3-28"></use>
<g transform="translate(736,0)">
 <use xlink:href="#E1-MJSZ2-222B" x="0" y="0"></use>
<g transform="translate(1060,1089)">
 <use transform="scale(0.707)" xlink:href="#E1-MJMATHI-44" x="0" y="0"></use>
 <use transform="scale(0.707)" xlink:href="#E1-MJMATHI-54" x="828" y="0"></use>
</g>
 <use transform="scale(0.707)" xlink:href="#E1-MJMAIN-30" x="787" y="-1270"></use>
<g transform="translate(2411,0)">
 <use xlink:href="#E1-MJMATHI-79" x="0" y="0"></use>
<g transform="translate(490,-150)">
 <use transform="scale(0.707)" xlink:href="#E1-MJMAIN-6D"></use>
 <use transform="scale(0.707)" xlink:href="#E1-MJMAIN-61" x="833" y="0"></use>
 <use transform="scale(0.707)" xlink:href="#E1-MJMAIN-78" x="1334" y="0"></use>
</g>
</g>
 <use xlink:href="#E1-MJMATHI-64" x="4485" y="0"></use>
 <use xlink:href="#E1-MJMATHI-74" x="5009" y="0"></use>
 <use xlink:href="#E1-MJMAIN-2B" x="5592" y="0"></use>
<g transform="translate(6593,0)">
 <use xlink:href="#E1-MJSZ2-222B" x="0" y="0"></use>
 <use transform="scale(0.707)" xlink:href="#E1-MJMATHI-54" x="1500" y="1540"></use>
<g transform="translate(556,-898)">
 <use transform="scale(0.707)" xlink:href="#E1-MJMATHI-44" x="0" y="0"></use>
 <use transform="scale(0.707)" xlink:href="#E1-MJMATHI-54" x="828" y="0"></use>
</g>
</g>
<g transform="translate(8500,0)">
 <use xlink:href="#E1-MJMATHI-79" x="0" y="0"></use>
<g transform="translate(490,-150)">
 <use transform="scale(0.707)" xlink:href="#E1-MJMAIN-6D"></use>
 <use transform="scale(0.707)" xlink:href="#E1-MJMAIN-69" x="833" y="0"></use>
 <use transform="scale(0.707)" xlink:href="#E1-MJMAIN-6E" x="1112" y="0"></use>
</g>
</g>
 <use xlink:href="#E1-MJMATHI-64" x="10437" y="0"></use>
 <use xlink:href="#E1-MJMATHI-74" x="10961" y="0"></use>
</g>
 <use xlink:href="#E1-MJSZ3-29" x="12059" y="-1"></use>
</g>
</g>
<g transform="translate(0,-809)">
 <use xlink:href="#E1-MJMAIN-3D" x="277" y="0"></use>
<g transform="translate(1334,0)">
<g transform="translate(120,0)">
<rect stroke="none" width="824" height="60" x="0" y="220"></rect>
 <use xlink:href="#E1-MJMAIN-31" x="162" y="676"></use>
 <use xlink:href="#E1-MJMATHI-54" x="60" y="-698"></use>
</g>
</g>
<g transform="translate(2565,0)">
 <use xlink:href="#E1-MJMAIN-28" x="0" y="0"></use>
<g transform="translate(389,0)">
 <use xlink:href="#E1-MJMATHI-44" x="0" y="0"></use>
 <use xlink:href="#E1-MJMAIN-22C5" x="1050" y="0"></use>
 <use xlink:href="#E1-MJMATHI-54" x="1551" y="0"></use>
 <use xlink:href="#E1-MJMAIN-22C5" x="2478" y="0"></use>
<g transform="translate(2978,0)">
 <use xlink:href="#E1-MJMATHI-79" x="0" y="0"></use>
<g transform="translate(490,-150)">
 <use transform="scale(0.707)" xlink:href="#E1-MJMAIN-6D"></use>
 <use transform="scale(0.707)" xlink:href="#E1-MJMAIN-61" x="833" y="0"></use>
 <use transform="scale(0.707)" xlink:href="#E1-MJMAIN-78" x="1334" y="0"></use>
</g>
</g>
 <use xlink:href="#E1-MJMAIN-2B" x="5108" y="0"></use>
 <use xlink:href="#E1-MJMATHI-54" x="6109" y="0"></use>
<g transform="translate(6980,0)">
 <use xlink:href="#E1-MJMAIN-28" x="0" y="0"></use>
<g transform="translate(389,0)">
 <use xlink:href="#E1-MJMAIN-31" x="0" y="0"></use>
 <use xlink:href="#E1-MJMAIN-2212" x="722" y="0"></use>
 <use xlink:href="#E1-MJMATHI-44" x="1723" y="0"></use>
</g>
 <use xlink:href="#E1-MJMAIN-29" x="2941" y="0"></use>
</g>
<g transform="translate(10478,0)">
 <use xlink:href="#E1-MJMATHI-79" x="0" y="0"></use>
<g transform="translate(490,-150)">
 <use transform="scale(0.707)" xlink:href="#E1-MJMAIN-6D"></use>
 <use transform="scale(0.707)" xlink:href="#E1-MJMAIN-69" x="833" y="0"></use>
 <use transform="scale(0.707)" xlink:href="#E1-MJMAIN-6E" x="1112" y="0"></use>
</g>
</g>
</g>
 <use xlink:href="#E1-MJMAIN-29" x="12637" y="0"></use>
</g>
</g>
<g transform="translate(0,-2608)">
 <use xlink:href="#E1-MJMAIN-3D" x="277" y="0"></use>
 <use xlink:href="#E1-MJMATHI-44" x="1334" y="0"></use>
 <use xlink:href="#E1-MJMAIN-22C5" x="2384" y="0"></use>
<g transform="translate(2885,0)">
 <use xlink:href="#E1-MJMATHI-79" x="0" y="0"></use>
<g transform="translate(490,-150)">
 <use transform="scale(0.707)" xlink:href="#E1-MJMAIN-6D"></use>
 <use transform="scale(0.707)" xlink:href="#E1-MJMAIN-61" x="833" y="0"></use>
 <use transform="scale(0.707)" xlink:href="#E1-MJMAIN-78" x="1334" y="0"></use>
</g>
</g>
 <use xlink:href="#E1-MJMAIN-2B" x="5015" y="0"></use>
<g transform="translate(6015,0)">
 <use xlink:href="#E1-MJMAIN-28" x="0" y="0"></use>
<g transform="translate(389,0)">
 <use xlink:href="#E1-MJMAIN-31" x="0" y="0"></use>
 <use xlink:href="#E1-MJMAIN-2212" x="722" y="0"></use>
 <use xlink:href="#E1-MJMATHI-44" x="1723" y="0"></use>
</g>
 <use xlink:href="#E1-MJMAIN-29" x="2941" y="0"></use>
</g>
<g transform="translate(9513,0)">
 <use xlink:href="#E1-MJMATHI-79" x="0" y="0"></use>
<g transform="translate(490,-150)">
 <use transform="scale(0.707)" xlink:href="#E1-MJMAIN-6D"></use>
 <use transform="scale(0.707)" xlink:href="#E1-MJMAIN-69" x="833" y="0"></use>
 <use transform="scale(0.707)" xlink:href="#E1-MJMAIN-6E" x="1112" y="0"></use>
</g>
</g>
</g>
</g>
</g>
</g>
</svg>