<svg xmlns:xlink="http://www.w3.org/1999/xlink" width="9.114ex" height="6.343ex" style="vertical-align: -2.838ex;" viewBox="0 -1508.9 3924.1 2730.8" role="img" focusable="false" xmlns="http://www.w3.org/2000/svg" aria-labelledby="MathJax-SVG-1-Title">
<title id="MathJax-SVG-1-Title">{\displaystyle c={\sqrt {\frac {p}{\rho }}}.}</title>
<defs aria-hidden="true">
<path stroke-width="1" id="E1-MJMATHI-63" d="M34 159Q34 268 120 355T306 442Q362 442 394 418T427 355Q427 326 408 306T360 285Q341 285 330 295T319 325T330 359T352 380T366 386H367Q367 388 361 392T340 400T306 404Q276 404 249 390Q228 381 206 359Q162 315 142 235T121 119Q121 73 147 50Q169 26 205 26H209Q321 26 394 111Q403 121 406 121Q410 121 419 112T429 98T420 83T391 55T346 25T282 0T202 -11Q127 -11 81 37T34 159Z"></path>
<path stroke-width="1" id="E1-MJMAIN-3D" d="M56 347Q56 360 70 367H707Q722 359 722 347Q722 336 708 328L390 327H72Q56 332 56 347ZM56 153Q56 168 72 173H708Q722 163 722 153Q722 140 707 133H70Q56 140 56 153Z"></path>
<path stroke-width="1" id="E1-MJMATHI-70" d="M23 287Q24 290 25 295T30 317T40 348T55 381T75 411T101 433T134 442Q209 442 230 378L240 387Q302 442 358 442Q423 442 460 395T497 281Q497 173 421 82T249 -10Q227 -10 210 -4Q199 1 187 11T168 28L161 36Q160 35 139 -51T118 -138Q118 -144 126 -145T163 -148H188Q194 -155 194 -157T191 -175Q188 -187 185 -190T172 -194Q170 -194 161 -194T127 -193T65 -192Q-5 -192 -24 -194H-32Q-39 -187 -39 -183Q-37 -156 -26 -148H-6Q28 -147 33 -136Q36 -130 94 103T155 350Q156 355 156 364Q156 405 131 405Q109 405 94 377T71 316T59 280Q57 278 43 278H29Q23 284 23 287ZM178 102Q200 26 252 26Q282 26 310 49T356 107Q374 141 392 215T411 325V331Q411 405 350 405Q339 405 328 402T306 393T286 380T269 365T254 350T243 336T235 326L232 322Q232 321 229 308T218 264T204 212Q178 106 178 102Z"></path>
<path stroke-width="1" id="E1-MJMATHI-3C1" d="M58 -216Q25 -216 23 -186Q23 -176 73 26T127 234Q143 289 182 341Q252 427 341 441Q343 441 349 441T359 442Q432 442 471 394T510 276Q510 219 486 165T425 74T345 13T266 -10H255H248Q197 -10 165 35L160 41L133 -71Q108 -168 104 -181T92 -202Q76 -216 58 -216ZM424 322Q424 359 407 382T357 405Q322 405 287 376T231 300Q217 269 193 170L176 102Q193 26 260 26Q298 26 334 62Q367 92 389 158T418 266T424 322Z"></path>
<path stroke-width="1" id="E1-MJSZ3-221A" d="M424 -948Q422 -947 313 -434T202 80L170 31Q165 24 157 10Q137 -21 137 -21Q131 -16 124 -8L111 5L264 248L473 -720Q473 -717 727 359T983 1440Q989 1450 1001 1450Q1007 1450 1013 1445T1020 1433Q1020 1425 742 244T460 -941Q458 -950 439 -950H436Q424 -950 424 -948Z"></path>
<path stroke-width="1" id="E1-MJMAIN-2E" d="M78 60Q78 84 95 102T138 120Q162 120 180 104T199 61Q199 36 182 18T139 0T96 17T78 60Z"></path>
</defs>
<g stroke="currentColor" fill="currentColor" stroke-width="0" transform="matrix(1 0 0 -1 0 0)" aria-hidden="true">
 <use xlink:href="#E1-MJMATHI-63" x="0" y="0"></use>
 <use xlink:href="#E1-MJMAIN-3D" x="711" y="0"></use>
<g transform="translate(1767,0)">
 <use xlink:href="#E1-MJSZ3-221A" x="0" y="-147"></use>
<rect stroke="none" width="877" height="60" x="1000" y="1244"></rect>
<g transform="translate(1000,0)">
<g transform="translate(120,0)">
<rect stroke="none" width="637" height="60" x="0" y="220"></rect>
 <use xlink:href="#E1-MJMATHI-70" x="67" y="714"></use>
 <use xlink:href="#E1-MJMATHI-3C1" x="60" y="-686"></use>
</g>
</g>
</g>
 <use xlink:href="#E1-MJMAIN-2E" x="3645" y="0"></use>
</g>
</svg>